<svg xmlns="http://www.w3.org/2000/svg" width="5.062" height="9.531" viewBox="0 0 5.062 9.531"><path id="Forma_1" data-name="Forma 1" d="M676.826 312.691h-1.211a2.15 2.15 0 0 0-2.239 2.346v1.081h-1.218a.193.193 0 0 0-.19.195v1.568a.192.192 0 0 0 .19.194h1.218v3.954a.192.192 0 0 0 .19.195h1.589a.192.192 0 0 0 .19-.195v-3.954h1.424a.192.192 0 0 0 .19-.194v-1.568a.2.2 0 0 0-.056-.138.191.191 0 0 0-.135-.057h-1.424v-.918a.548.548 0 0 1 .665-.665h.816a.193.193 0 0 0 .191-.194v-1.456a.193.193 0 0 0-.19-.194z" transform="translate(-671.969 -312.688)" fill="#fff" fill-rule="evenodd"/></svg>